<svg width="110" height="37" viewBox="0 0 110 37" fill="none" xmlns="http://www.w3.org/2000/svg">
<path d="M10.2109 2.5625C9.02344 2.60938 7.91406 2.70312 6.88281 2.84375C6.86719 3.84375 6.85938 4.98438 6.85938 6.26562C6.85938 7.53125 6.85938 8.89062 6.85938 10.3438C6.875 11.7812 6.89062 13.2734 6.90625 14.8203C6.92188 16.3516 6.9375 17.8828 6.95312 19.4141C6.98438 20.9297 7.00781 22.4062 7.02344 23.8438C7.05469 25.2812 7.08594 26.625 7.11719 27.875C7.16406 30.7656 7.1875 32.6484 7.1875 33.5234C8.04688 33.6172 9.05469 33.7109 10.2109 33.8047V2.5625ZM14.0078 20.75C14.0078 20.75 13.5547 20.7656 12.6484 20.7969V33.8984H13.75C19.0469 33.8984 22.5391 32.7422 24.2266 30.4297C24.8672 29.5703 25.1875 28.5781 25.1875 27.4531C25.1875 26.3125 25 25.3984 24.625 24.7109C24.2656 24.0234 23.7812 23.4453 23.1719 22.9766C22.5625 22.4922 21.8594 22.1094 21.0625 21.8281C20.2812 21.5312 19.4766 21.3047 18.6484 21.1484C17.2422 20.8828 15.6953 20.75 14.0078 20.75ZM15.5781 18.2422C24.2188 18.2422 28.5391 15.6719 28.5391 10.5312C28.5391 8.48438 27.5859 6.78125 25.6797 5.42188C23.2891 3.73438 19.9922 2.77344 15.7891 2.53906C14.6328 2.47656 13.5859 2.46875 12.6484 2.51562V18.2422H15.5781ZM4.39844 3.21875L1.96094 3.80469C1.60156 3.80469 1.29688 3.67969 1.04688 3.42969C0.8125 3.16406 0.695312 2.89062 0.695312 2.60938C0.695312 2 0.984375 1.57812 1.5625 1.34375C4.60938 0.484375 8.19531 0.0546875 12.3203 0.0546875C17.0859 0.0546875 21.1172 0.703125 24.4141 2C27.1172 3.0625 29.0234 4.625 30.1328 6.6875C30.7109 7.78125 31 9.00781 31 10.3672C31 11.7266 30.7812 12.9297 30.3438 13.9766C29.9219 15.0078 29.3359 15.9219 28.5859 16.7188C27.0547 18.3125 25.0391 19.3203 22.5391 19.7422C24.9609 20.6172 26.5547 22.2656 27.3203 24.6875C27.5547 25.4531 27.6719 26.3594 27.6719 27.4062C27.6719 28.4531 27.5 29.4297 27.1562 30.3359C26.8125 31.2266 26.3203 32.0078 25.6797 32.6797C25.0547 33.3359 24.3047 33.8906 23.4297 34.3438C22.5547 34.7812 21.5938 35.1406 20.5469 35.4219C18.5625 35.9375 16.2031 36.2422 13.4688 36.3359C10.0312 36.3672 6.99219 36.0859 4.35156 35.4922C2.80469 35.1484 1.8125 34.8281 1.375 34.5312C0.921875 34.3125 0.695312 33.9922 0.695312 33.5703C0.695312 33.1328 0.828125 32.7969 1.09375 32.5625C1.375 32.3281 1.61719 32.2109 1.82031 32.2109C2.10156 32.2109 2.28906 32.2344 2.38281 32.2812C2.89844 32.5312 3.66406 32.7812 4.67969 33.0312C4.66406 32.125 4.64844 30.9453 4.63281 29.4922C4.61719 28.0391 4.59375 26.4297 4.5625 24.6641C4.54688 22.8828 4.52344 21.0156 4.49219 19.0625C4.47656 17.0938 4.46094 15.1562 4.44531 13.25C4.42969 11.3438 4.41406 9.52344 4.39844 7.78906C4.38281 6.05469 4.38281 4.53125 4.39844 3.21875ZM44.2188 14.5625C43.4219 14.6875 42.3516 14.75 41.0078 14.75H40.8203V32.3984C41.1172 32.3672 41.4062 32.3516 41.6875 32.3516C42.25 32.3516 42.7422 32.3516 43.1641 32.3516C43.5859 32.3516 43.9375 32.3672 44.2188 32.3984V14.5625ZM43.9375 4.76562C43.9375 4.28125 43.7656 3.875 43.4219 3.54688C43.0938 3.20312 42.6875 3.03125 42.2031 3.03125C41.7188 3.03125 41.3125 3.20312 40.9844 3.54688C40.6562 3.875 40.4922 4.28125 40.4922 4.76562C40.4922 5.25 40.6562 5.65625 40.9844 5.98438C41.3125 6.3125 41.7188 6.47656 42.2031 6.47656C42.6875 6.47656 43.0938 6.3125 43.4219 5.98438C43.7656 5.65625 43.9375 5.25 43.9375 4.76562ZM49.7969 35.5859C47.2188 35.0703 44.8125 34.8125 42.5781 34.8125C40.3438 34.8125 37.9375 35.0703 35.3594 35.5859C35 35.5859 34.7031 35.4531 34.4688 35.1875C34.25 34.9219 34.1406 34.6406 34.1406 34.3438C34.1406 34.0469 34.2266 33.7812 34.3984 33.5469C34.5859 33.3125 34.8828 33.1562 35.2891 33.0781C35.7109 32.9844 36.1953 32.9062 36.7422 32.8438C37.3047 32.7656 37.8516 32.6875 38.3828 32.6094V14.6562L34.7734 14.3516C34.4609 14.3047 34.2031 14.1641 34 13.9297C33.8125 13.6953 33.7188 13.4062 33.7188 13.0625C33.7188 12.7031 33.8594 12.4219 34.1406 12.2188C34.4219 12.0156 34.6953 11.9141 34.9609 11.9141H35.1016C35.1172 11.9141 35.2969 11.9375 35.6406 11.9844C35.9844 12.0156 36.4297 12.0547 36.9766 12.1016C38.4609 12.2266 39.8203 12.2891 41.0547 12.2891C42.7734 12.2891 44.1641 12.1641 45.2266 11.9141H45.4844C45.8438 11.9141 46.1406 12.0391 46.375 12.2891C46.6094 12.5234 46.7266 12.7969 46.7266 13.1094L46.6797 32.6094C47.2266 32.6875 47.7734 32.7656 48.3203 32.8438C48.8828 32.9062 49.3828 32.9844 49.8203 33.0781C50.6328 33.2344 51.0391 33.6484 51.0391 34.3203C51.0391 34.6797 50.9062 34.9766 50.6406 35.2109C50.375 35.4609 50.0938 35.5859 49.7969 35.5859ZM46.3984 4.76562C46.3984 5.9375 45.9922 6.92188 45.1797 7.71875C44.3359 8.53125 43.3438 8.9375 42.2031 8.9375C41.0469 8.9375 40.0625 8.53125 39.25 7.71875C38.4375 6.90625 38.0312 5.92188 38.0312 4.76562C38.0312 3.60938 38.4375 2.625 39.25 1.8125C40.0625 1 41.0469 0.59375 42.2031 0.59375C43.3438 0.59375 44.3359 1 45.1797 1.8125C45.9922 2.60938 46.3984 3.59375 46.3984 4.76562ZM64.0938 33.6641C63.0312 32.7422 62.5 31.5859 62.5 30.1953V3.3125L59.1484 4.27344V27.4062C59.1484 30.8125 60.1953 32.8125 62.2891 33.4062C62.8828 33.5625 63.4844 33.6484 64.0938 33.6641ZM64.9609 11.3281C66.8984 11.2656 68.8438 11.1562 70.7969 11H70.8906C71.2344 11 71.5234 11.125 71.7578 11.375C71.9922 11.6094 72.1094 11.8828 72.1094 12.1953C72.1094 12.5078 72 12.7891 71.7812 13.0391C71.5781 13.2734 71.3203 13.4062 71.0078 13.4375C68.6172 13.625 66.6016 13.7422 64.9609 13.7891V30.1953C64.9609 31.1328 65.4375 31.7969 66.3906 32.1875C66.6562 32.2969 66.9609 32.3516 67.3047 32.3516C67.6641 32.3516 67.9766 32.2422 68.2422 32.0234C68.5234 31.7891 68.7578 31.5 68.9453 31.1562C69.1953 30.7031 69.3984 30.1719 69.5547 29.5625C69.7891 28.6094 70.2344 28.1328 70.8906 28.1328C71.25 28.1328 71.5391 28.2734 71.7578 28.5547C71.9922 28.8203 72.1094 29.0938 72.1094 29.375V29.6328C71.6562 31.7109 70.7656 33.3203 69.4375 34.4609C68.1094 35.5859 66.4688 36.1484 64.5156 36.1484C60.9844 36.1484 58.6016 34.7031 57.3672 31.8125C56.8828 30.6875 56.6406 29.2188 56.6406 27.4062V13.7422C55.9375 13.6953 55.2266 13.6484 54.5078 13.6016C53.8047 13.5547 53.1953 13.5 52.6797 13.4375C51.7422 13.3438 51.2734 12.9297 51.2734 12.1953C51.2734 11.8359 51.4062 11.5469 51.6719 11.3281C51.9531 11.1094 52.2344 11 52.5156 11H52.6094L56.6406 11.2812V3.3125C56.6406 3.04688 56.7266 2.80469 56.8984 2.58594C57.0703 2.35156 57.2891 2.19531 57.5547 2.11719L63.4141 0.546875C63.4766 0.5 63.6328 0.476562 63.8828 0.476562C64.1484 0.476562 64.3906 0.609375 64.6094 0.875C64.8438 1.14062 64.9609 1.42969 64.9609 1.74219V11.3281ZM85.2578 31.8828C82.6328 28.8203 81.3203 24.1797 81.3203 17.9609C81.3203 11.8672 83.1094 7.25781 86.6875 4.13281C86.7812 4.03906 86.8984 3.94531 87.0391 3.85156C84.3203 5.05469 82.1406 6.95312 80.5 9.54688C78.8125 12.2031 77.9688 15.1328 77.9688 18.3359C77.9688 22.6641 79.4062 26.3672 82.2812 29.4453C83.1719 30.3984 84.1641 31.2109 85.2578 31.8828ZM107.008 18.4062C107.008 17.2969 106.867 16.1641 106.586 15.0078C106.305 13.8359 105.906 12.6953 105.391 11.5859C104.891 10.4609 104.281 9.39844 103.562 8.39844C102.859 7.38281 102.086 6.5 101.242 5.75C99.3828 4.09375 97.4766 3.26562 95.5234 3.26562C91.6797 3.26562 88.6953 4.84375 86.5703 8C84.6953 10.7969 83.7578 14.1172 83.7578 17.9609C83.7578 20.7734 84.0078 23.0078 84.5078 24.6641C85.0078 26.3203 85.5312 27.6562 86.0781 28.6719C86.6406 29.6719 87.3281 30.5469 88.1406 31.2969C89.875 32.875 92.0625 33.6641 94.7031 33.6641C96.8125 33.6641 98.8672 32.8594 100.867 31.25C102.68 29.7656 104.164 27.8125 105.32 25.3906C106.445 23.0156 107.008 20.6875 107.008 18.4062ZM109.445 18.4062C109.445 20 109.234 21.5625 108.812 23.0938C108.406 24.6094 107.828 26.0391 107.078 27.3828C106.344 28.7266 105.453 29.9531 104.406 31.0625C103.359 32.1719 102.211 33.125 100.961 33.9219C98.3203 35.5938 95.4844 36.4297 92.4531 36.4297C87.8125 36.4297 83.8203 34.6562 80.4766 31.1094C78.3828 28.8906 76.9297 26.2344 76.1172 23.1406C75.7109 21.5938 75.5078 19.9922 75.5078 18.3359C75.5078 15.0703 76.2812 12.0312 77.8281 9.21875C79.3125 6.51562 81.3438 4.34375 83.9219 2.70312C86.5312 1.0625 89.375 0.242188 92.4531 0.242188C95.625 0.242188 98.5547 1.125 101.242 2.89062C103.758 4.54688 105.75 6.77344 107.219 9.57031C108.703 12.3672 109.445 15.3125 109.445 18.4062Z" fill="black"/>
</svg>
